<svg xmlns="http://www.w3.org/2000/svg" xmlns:xlink="http://www.w3.org/1999/xlink" version="1.1" id="Layer_1" x="0px" y="0px" width="100px" height="100px" viewBox="0 0 100 100" enable-background="new 0 0 100 100" xml:space="preserve">
<g id="XMLID_83_">
	<g id="XMLID_11_">
		<g>
			<g id="XMLID_12_">
				<g>
					<path d="M34.679,59.56c0,1.321-0.943,2.396-2.111,2.396h-3.035h-3.753c-1.169,0-2.129-1.075-2.129-2.396       c0-1.317,0.96-2.374,2.129-2.374h3.753h3.035C33.735,57.186,34.679,58.242,34.679,59.56z"/>
					<path d="M74.083,64.369v4.355c0,2.469-2.094,4.468-4.638,4.468H34.171c-2.565,0-4.639-1.999-4.639-4.468v-3.81h3.035       c1.754,0,3.299-0.943,4.223-2.356c0.547-0.866,0.849-1.904,0.849-2.999c0-2.939-2.263-5.354-5.071-5.354h-3.035v-4.297h3.035       c2.809,0,5.071-2.413,5.071-5.354c0-2.942-2.263-5.355-5.071-5.355h-3.035v-3.508c0-2.469,2.073-4.485,4.639-4.485h35.274       c2.544,0,4.638,2.017,4.638,4.485V64.369z M70.615,61.145V39.69c0-2.564-0.209-4.658-2.678-4.658H55.305h-8.598       c-2.451,0-4.448,2.094-4.448,4.658v20.135c0.019,0,0.036-0.018,0.075-0.018c5.807-1.584,8.709-2.266,9.369-4.15h0.303       c-0.094-0.073-0.17-0.131-0.245-0.226c-2.471-2.224-4.355-6.562-4.355-10.066c0-4.961,4.053-8.221,7.899-8.221       c3.826,0,7.692,3.525,7.692,8.483c0,3.508-2.093,7.692-4.657,9.859c0.509,2.019,3.413,2.678,9.408,4.32       C69.029,60.164,69.953,60.599,70.615,61.145z M53.475,55.657h0.302c-0.075-0.073-0.169-0.131-0.244-0.226       C53.513,55.508,53.495,55.584,53.475,55.657z"/>
					<path d="M53.776,55.657h-0.302c0.021-0.073,0.038-0.149,0.058-0.226C53.607,55.526,53.701,55.584,53.776,55.657z"/>
					<path d="M32.567,42.16c1.168,0,2.111,1.072,2.111,2.395c0,1.318-0.943,2.375-2.111,2.375h-3.035h-3.753       c-1.169,0-2.129-1.057-2.129-2.375c0-1.322,0.96-2.395,2.129-2.395h3.753H32.567z"/>
				</g>
			</g>
		</g>
	</g>
</g>
</svg>